<?xml version="1.0" encoding="UTF-8"?> <svg xmlns="http://www.w3.org/2000/svg" id="_Слой_2" data-name="Слой 2" viewBox="0 0 432.44 250.55"> <defs> <style> .cls-1 { fill: #fff; } </style> </defs> <g id="_Слой_1-2" data-name="Слой 1"> <g> <path class="cls-1" d="m387.27,104.5c-13.19-13.2-31.45-21.51-51.74-21.51-6.69,0-13.19,1.01-19.48,2.63l-10.55-28.81v-.2l-.2-.2-16.23-44.44h34.29c.8,0,1.82.2,2.63.61.81.41,1.42,1.22,2.03,2.03.41.81.61,1.62.61,2.64,0,.81-.2,1.82-.61,2.63-.41.61-1.01,1.22-1.83,1.83-.6.41-1.42.61-2.22.81h-3.05l-.2,11.97h2.43c.82-.2,1.62-.2,2.03-.2,2.64-.2,5.28-1.21,7.51-2.64,2.23-1.42,4.26-3.45,5.68-5.68,1.42-2.84,2.23-5.88,2.23-8.72,0-3.05-.81-6.09-2.23-8.73-1.62-2.63-3.86-4.87-6.5-6.29-2.63-1.42-5.68-2.23-8.72-2.23h-42.61c-.81,0-1.42,0-2.23.41-3.04,1.01-4.66,4.46-3.44,7.71l11.76,32.05h-111.39l-10.54-28.2h14.81v-6.08c0-3.25-2.65-5.89-6.09-5.89h-37.94v5.89c0,3.45,2.63,6.08,5.88,6.08h10.55l.2.2,12.38,33.28-31.85,47.07c-10.56-6.08-22.73-9.53-35.71-9.53-20.29,0-38.55,8.31-51.74,21.51-13.19,13.18-21.31,31.44-21.31,51.53,0,5.64.63,11.12,1.82,16.38h12.33c-1.43-5.22-2.18-10.72-2.18-16.38,0-16.84,6.69-32.06,17.86-43.01,10.95-11.16,26.37-17.86,43.22-17.86,10.55,0,20.29,2.64,29.01,7.3l-30.44,44.85c-3.85.81-6.69,4.26-6.69,8.52,0,4.87,3.86,8.72,8.72,8.72,2.44,0,4.47-1.01,6.09-2.43h108.55c1.62,0,3.25-.61,4.46-2.03l80.96-90.09,3.65,9.94,3.65,9.95,4.06,11.16,9.53,25.96,9.54,25.77c-.61,1.22-1.01,2.44-1.01,3.86,0,4.87,3.85,8.72,8.72,8.72s8.73-3.85,8.73-8.72c0-3.45-2.24-6.49-5.28-7.91l-18.87-51.74c4.87-1.22,9.94-1.83,15.22-1.83,16.84,0,32.06,6.7,43.21,17.86,10.96,10.95,17.86,26.17,17.86,43.01,0,5.66-.78,11.16-2.23,16.38h12.38c1.19-5.26,1.82-10.74,1.82-16.38,0-20.09-8.11-38.35-21.3-51.53m-279.18,45.65l27.79-40.99c1.42,1.22,2.84,2.43,4.06,3.86,9.74,9.73,16.23,22.72,17.65,37.13h-49.5Zm61.47,0c-1.42-17.86-9.13-33.89-21.1-45.65-1.83-1.83-3.86-3.66-5.88-5.28l26.98-39.97,33.88,90.9h-33.88Zm44.64-5.48l-34.49-92.32h111.38l1.83,5.07-78.72,87.25Zm69.79-40.17c-13.39,13.18-21.51,31.44-21.51,51.53,0,5.64.63,11.12,1.82,16.38h12.39c-1.45-5.22-2.23-10.72-2.23-16.38,0-16.84,6.9-32.06,17.85-43.01,3.25-3.25,6.7-5.89,10.35-8.32l-4.26-11.57c-5.28,3.25-10.15,7.1-14.41,11.37"></path> <path class="cls-1" d="m56.74,235.68c0,1.93-.25,3.6-.76,5.03s-1.22,2.65-2.12,3.68c-.9,1.03-1.99,1.86-3.26,2.5-1.27.64-2.67,1.14-4.2,1.52-1.53.38-3.17.64-4.91.78-1.74.14-3.53.22-5.4.22H0v-49.75h35.44c1.42,0,2.85.06,4.29.18,1.43.12,2.81.34,4.11.67,1.3.33,2.51.78,3.64,1.36,1.12.58,2.11,1.33,2.93,2.28.83.94,1.48,2.08,1.95,3.4.47,1.33.7,2.9.7,4.71,0,3.23-.8,5.8-2.39,7.69-1.59,1.89-4.1,3.15-7.53,3.78,2.42.17,4.48.54,6.21,1.11,1.73.57,3.13,1.34,4.22,2.32,1.09.98,1.88,2.17,2.39,3.58.51,1.41.76,3.06.77,4.95m-13.66-1.57c0-1.13-.19-2.04-.58-2.73-.39-.69-.99-1.22-1.81-1.59-.82-.37-1.88-.62-3.19-.74-1.3-.12-2.86-.18-4.67-.18H13.42v10.54h19.41c1.81,0,3.37-.06,4.67-.18s2.37-.37,3.19-.76c.82-.39,1.42-.93,1.81-1.61.39-.69.58-1.61.58-2.74m-29.65-15.13h19.8c1.35,0,2.46-.12,3.33-.36.87-.24,1.56-.57,2.06-.98.51-.41.86-.9,1.05-1.46.19-.57.29-1.16.29-1.79s-.1-1.22-.29-1.79c-.19-.57-.54-1.07-1.05-1.5-.51-.43-1.19-.78-2.06-1.05-.87-.26-1.98-.4-3.33-.4H13.43v9.34Z"></path> <polygon class="cls-1" points="114.79 238.79 114.79 249.39 63.91 249.39 63.91 199.65 114.28 199.65 114.28 210.26 77.71 210.26 77.71 218.47 112.4 218.47 112.4 229.08 77.71 229.08 77.71 238.79 114.79 238.79"></polygon> <path class="cls-1" d="m181.14,199.44v49.74h-13.41v-38.87h-21.94v20.08c0,3.21-.8,6.12-2.41,8.65-1.54,2.53-3.83,4.7-6.74,6.43-2.97,1.73-6.49,3.09-10.69,4.02-1.3.31-2.6.49-4.02.68v-10.88c.99-.18,1.79-.43,2.6-.74,1.48-.49,2.72-1.11,3.71-1.79,1.05-.68,1.79-1.42,2.41-2.16.62-.74,1.05-1.42,1.3-2.16.25-.74.37-1.42.37-2.04v-30.65h.12v-.31h48.69Z"></path> <path class="cls-1" d="m256,224.37c0,4.27-.78,8.05-2.35,11.31-1.57,3.27-3.81,6-6.74,8.2-2.92,2.2-6.46,3.86-10.63,4.98-4.16,1.12-8.85,1.68-14.03,1.68s-9.88-.56-14.06-1.68c-4.18-1.12-7.75-2.79-10.7-4.98-2.95-2.19-5.21-4.93-6.81-8.2-1.6-3.27-2.39-7.04-2.39-11.31s.8-8.04,2.39-11.31c1.59-3.27,3.87-6,6.81-8.2,2.94-2.2,6.51-3.86,10.7-4.98,4.18-1.12,8.87-1.68,14.06-1.68s9.87.56,14.03,1.68c4.17,1.12,7.71,2.79,10.63,4.98,2.92,2.19,5.17,4.93,6.74,8.2,1.57,3.27,2.35,7.04,2.35,11.31m-13.58,0c0-1.85-.3-3.71-.89-5.56-.59-1.85-1.64-3.51-3.15-4.98-1.51-1.47-3.57-2.66-6.17-3.58-2.61-.92-5.93-1.38-9.96-1.38-2.7,0-5.08.22-7.13.64-2.05.42-3.82,1.01-5.32,1.76-1.5.75-2.75,1.62-3.76,2.63-1.01,1-1.82,2.08-2.43,3.22-.6,1.14-1.03,2.34-1.28,3.58-.25,1.24-.38,2.47-.38,3.68s.13,2.48.38,3.73c.25,1.26.68,2.45,1.28,3.6.61,1.15,1.42,2.22,2.43,3.21,1.01.99,2.27,1.85,3.76,2.59,1.5.74,3.27,1.31,5.32,1.74,2.05.43,4.42.64,7.13.64,4.03,0,7.35-.46,9.96-1.38,2.61-.91,4.66-2.11,6.17-3.59,1.51-1.48,2.56-3.13,3.15-4.98.59-1.85.89-3.71.89-5.56"></path> <path class="cls-1" d="m382.23,224.38c0,4.26-.8,8.03-2.35,11.31-1.54,3.28-3.83,5.99-6.73,8.22-2.9,2.16-6.49,3.83-10.63,4.94-4.14,1.11-8.84,1.67-14.03,1.67s-9.89-.56-14.09-1.67c-4.2-1.11-7.72-2.78-10.69-4.94-2.97-2.23-5.19-4.94-6.8-8.22-1-2.06-1.69-4.3-2.03-6.8h-8.11v20.76h-13.47v-49.8h13.47v18.11h8.46c.03-.12.04-.25.07-.37.06-.31.19-.56.25-.87.31-1.3.8-2.47,1.36-3.65,1.61-3.28,3.83-6.06,6.8-8.22,2.97-2.22,6.49-3.83,10.69-5,.18-.06.37-.12.56-.12,1.91-.49,3.95-.87,6.12-1.11,2.35-.31,4.82-.43,7.41-.43,5.19,0,9.89.56,14.03,1.67,4.14,1.17,7.72,2.78,10.63,5,2.9,2.16,5.19,4.94,6.73,8.22,1.55,3.28,2.36,7.04,2.36,11.31m-13.6,0c0-1.85-.31-3.71-.87-5.56-.62-1.85-1.67-3.52-3.15-5-1.54-1.48-3.58-2.66-6.18-3.58-2.6-.93-5.93-1.36-9.95-1.36h-.12c-2.66,0-5.01.19-7.04.62-2.04.43-3.77,1.05-5.32,1.79-.37.19-.74.37-1.05.62-1.05.56-1.92,1.24-2.72,1.98-.86.86-1.61,1.85-2.16,2.84-.12.12-.18.25-.25.37-.06.19-.19.31-.25.5-.49.99-.86,2.04-1.05,3.09-.25,1.24-.37,2.47-.37,3.71,0,1.11.12,2.16.31,3.28,0,.12.06.31.06.43s.06.31.12.43c.25,1.11.62,2.16,1.17,3.15.62,1.17,1.42,2.22,2.41,3.21.8.74,1.67,1.42,2.72,1.98.31.25.68.43,1.05.62,1.55.74,3.27,1.3,5.32,1.73,2.04.43,4.39.68,7.04.68h.12c4.02,0,7.35-.49,9.95-1.42,2.6-.93,4.63-2.1,6.18-3.58,1.48-1.48,2.53-3.09,3.15-4.94.56-1.85.87-3.71.87-5.56"></path> <polygon class="cls-1" points="432.44 199.65 432.44 210.55 402.86 210.55 402.86 249.39 389.42 249.39 389.42 199.65 432.44 199.65"></polygon> <rect class="cls-1" y="170.8" width="432.44" height="9"></rect> </g> </g> </svg> 