<svg width="20" height="20" viewBox="0 0 20 20" fill="none" xmlns="http://www.w3.org/2000/svg">
<path d="M7.34186 1.6665L4.3252 4.6915" stroke="#292D32" stroke-width="1.5" stroke-miterlimit="10" stroke-linecap="round" stroke-linejoin="round"/>
<path d="M12.6582 1.6665L15.6749 4.6915" stroke="#292D32" stroke-width="1.5" stroke-miterlimit="10" stroke-linecap="round" stroke-linejoin="round"/>
<path d="M1.6665 6.54167C1.6665 5 2.4915 4.875 3.5165 4.875H16.4832C17.5082 4.875 18.3332 5 18.3332 6.54167C18.3332 8.33333 17.5082 8.20833 16.4832 8.20833H3.5165C2.4915 8.20833 1.6665 8.33333 1.6665 6.54167Z" stroke="#292D32" stroke-width="1.5"/>
<path d="M8.1333 11.6665V14.6248" stroke="#292D32" stroke-width="1.5" stroke-linecap="round"/>
<path d="M11.9668 11.6665V14.6248" stroke="#292D32" stroke-width="1.5" stroke-linecap="round"/>
<path d="M2.9165 8.3335L4.0915 15.5335C4.35817 17.1502 4.99984 18.3335 7.38317 18.3335H12.4082C14.9998 18.3335 15.3832 17.2002 15.6832 15.6335L17.0832 8.3335" stroke="#292D32" stroke-width="1.5" stroke-linecap="round"/>
</svg>
