<svg width="87" height="50" viewBox="0 0 87 50" fill="none" xmlns="http://www.w3.org/2000/svg">
<path d="M77.9122 20.8548C75.2586 18.2205 71.585 16.5621 67.503 16.5621C66.1571 16.5621 64.8494 16.7637 63.5839 17.087L61.4615 11.3374V11.2975L61.4212 11.2576L58.156 2.38883H65.0546C65.2155 2.38883 65.4207 2.42874 65.5837 2.51056C65.7467 2.59238 65.8694 2.75403 65.9921 2.91568C66.0746 3.07733 66.1148 3.23898 66.1148 3.44254C66.1148 3.60419 66.0746 3.80576 65.9921 3.96741C65.9096 4.08914 65.7889 4.21088 65.6239 4.33261C65.5032 4.41444 65.3383 4.45435 65.1773 4.49426H64.5637L64.5235 6.88309H65.0123C65.1773 6.84318 65.3383 6.84318 65.4207 6.84318C65.9519 6.80326 66.483 6.6017 66.9316 6.31632C67.3803 6.03293 67.7887 5.62781 68.0744 5.18277C68.36 4.616 68.523 4.00932 68.523 3.44254C68.523 2.83386 68.36 2.22718 68.0744 1.70032C67.7484 1.17545 67.2978 0.728422 66.7667 0.445036C66.2376 0.16165 65.6239 0 65.0123 0H56.4399C56.277 0 56.1542 0 55.9913 0.0818228C55.3797 0.283386 55.0538 0.971895 55.2992 1.62049L57.6651 8.01663H35.2553L33.1348 2.38883H36.1144V1.17545C36.1144 0.526859 35.5812 0 34.8892 0H27.2563V1.17545C27.2563 1.86396 27.7854 2.38883 28.4392 2.38883H30.5617L30.6019 2.42874L33.0926 9.07035L26.6849 18.464C24.5604 17.2506 22.112 16.5621 19.5006 16.5621C15.4186 16.5621 11.745 18.2205 9.09142 20.8548C6.43781 23.4851 4.8042 27.1292 4.8042 31.1385C4.8042 32.2641 4.93095 33.3577 5.17035 34.4075H7.65094C7.36325 33.3657 7.21236 32.2681 7.21236 31.1385C7.21236 27.7778 8.55828 24.7404 10.8055 22.5551C13.0085 20.328 16.1107 18.9909 19.5006 18.9909C21.6231 18.9909 23.5827 19.5177 25.337 20.4477L19.213 29.3983C18.4384 29.56 17.867 30.2485 17.867 31.0986C17.867 32.0705 18.6436 32.8389 19.6214 32.8389C20.1122 32.8389 20.5206 32.6373 20.8466 32.3539H42.685C43.0109 32.3539 43.3389 32.2322 43.5823 31.9488L59.8701 13.9697L60.6044 15.9534L61.3387 17.9391L62.1555 20.1663L64.0728 25.3471L65.9921 30.49C65.8694 30.7334 65.7889 30.9769 65.7889 31.2603C65.7889 32.2322 66.5635 33.0005 67.5432 33.0005C68.523 33.0005 69.2996 32.2322 69.2996 31.2603C69.2996 30.5718 68.8489 29.9651 68.2373 29.6817L64.441 19.3561C65.4207 19.1126 66.4408 18.9909 67.503 18.9909C70.8909 18.9909 73.9529 20.328 76.1961 22.5551C78.4011 24.7404 79.7893 27.7778 79.7893 31.1385C79.7893 32.2681 79.6323 33.3657 79.3406 34.4075H81.8313C82.0707 33.3577 82.1974 32.2641 82.1974 31.1385C82.1974 27.1292 80.5658 23.4851 77.9122 20.8548ZM21.7459 29.9651L27.3367 21.7848C27.6224 22.0283 27.9081 22.2698 28.1535 22.5551C30.1131 24.4969 31.4187 27.0893 31.7044 29.9651H21.7459ZM34.1126 29.9651C33.8269 26.4008 32.2758 23.2017 29.8676 20.8548C29.4995 20.4896 29.0911 20.1244 28.6847 19.8011L34.1126 11.8244L40.9287 29.9651H34.1126ZM43.0934 28.8715L36.1546 10.4474H58.5624L58.9306 11.4592L43.0934 28.8715ZM57.134 20.8548C54.4402 23.4851 52.8066 27.1292 52.8066 31.1385C52.8066 32.2641 52.9333 33.3577 53.1727 34.4075H55.6654C55.3737 33.3657 55.2167 32.2681 55.2167 31.1385C55.2167 27.7778 56.6049 24.7404 58.8079 22.5551C59.4617 21.9065 60.1558 21.3797 60.8901 20.8947L60.0331 18.5857C58.9708 19.2343 57.991 20.0027 57.134 20.8548Z" fill="black" fill-opacity="0.9"/>
<path d="M11.4151 47.0346C11.4151 47.4198 11.3648 47.7531 11.2622 48.0384C11.1596 48.3238 11.0168 48.5673 10.8357 48.7729C10.6547 48.9784 10.4354 49.144 10.1799 49.2718C9.92437 49.3995 9.64272 49.4993 9.33491 49.5751C9.0271 49.651 8.69716 49.7028 8.3471 49.7308C7.99704 49.7587 7.63692 49.7747 7.26071 49.7747H0V39.8462H7.13195C7.41763 39.8462 7.70532 39.8582 7.99503 39.8821C8.28272 39.9061 8.56035 39.95 8.82189 40.0158C9.08343 40.0817 9.32686 40.1715 9.5542 40.2872C9.77952 40.403 9.97869 40.5527 10.1437 40.7422C10.3106 40.9298 10.4414 41.1554 10.536 41.4208C10.6305 41.6862 10.6768 41.9995 10.6768 42.3607C10.6768 43.0053 10.5159 43.5182 10.196 43.8954C9.87609 44.2726 9.37112 44.5241 8.68106 44.6498C9.16792 44.6837 9.58236 44.7576 9.93041 44.8713C10.2785 44.9851 10.5601 45.1387 10.7794 45.3343C10.9987 45.5299 11.1576 45.7674 11.2602 46.0488C11.3628 46.3301 11.4131 46.6594 11.4151 47.0366M8.66698 46.7233C8.66698 46.4978 8.62875 46.3162 8.55029 46.1785C8.47183 46.0408 8.35112 45.935 8.18615 45.8612C8.02118 45.7873 7.80793 45.7374 7.54437 45.7135C7.28284 45.6895 6.96899 45.6776 6.60485 45.6776H2.69988V47.781H6.60485C6.96899 47.781 7.28284 47.769 7.54437 47.7451C7.80591 47.7211 8.02118 47.6712 8.18615 47.5934C8.35112 47.5156 8.47183 47.4078 8.55029 47.2721C8.62875 47.1344 8.66698 46.9508 8.66698 46.7253M2.70189 43.7058H6.68532C6.95692 43.7058 7.18023 43.6819 7.35526 43.634C7.53029 43.5861 7.66911 43.5202 7.7697 43.4384C7.8723 43.3566 7.94272 43.2588 7.98094 43.147C8.01917 43.0333 8.03929 42.9155 8.03929 42.7898C8.03929 42.6641 8.01917 42.5463 7.98094 42.4326C7.94272 42.3188 7.8723 42.219 7.7697 42.1332C7.6671 42.0474 7.53029 41.9776 7.35526 41.9237C7.18023 41.8718 6.95692 41.8439 6.68532 41.8439H2.70189V43.7078V43.7058Z" fill="black" fill-opacity="0.9"/>
<path d="M23.0936 47.6548V49.7702H12.8574V39.8438H22.991V41.9612H15.6338V43.5996H22.6128V45.717H15.6338V47.6548H23.0936Z" fill="black" fill-opacity="0.9"/>
<path d="M36.4423 39.8018V49.7283H33.7445V41.9711H29.3305V45.9784C29.3305 46.619 29.1696 47.1997 28.8457 47.7046C28.5358 48.2095 28.0751 48.6426 27.4897 48.9879C26.8922 49.3331 26.184 49.6045 25.339 49.7901C25.0775 49.852 24.816 49.8879 24.5303 49.9258V47.7545C24.7294 47.7186 24.8904 47.6687 25.0533 47.6069C25.3511 47.5091 25.6006 47.3853 25.7997 47.2496C26.011 47.1139 26.1599 46.9662 26.2846 46.8186C26.4093 46.6709 26.4958 46.5352 26.5461 46.3875C26.5964 46.2398 26.6206 46.1041 26.6206 45.9804V39.8636H26.6447V39.8018H36.4403H36.4423Z" fill="black" fill-opacity="0.9"/>
<path d="M51.5025 44.7774C51.5025 45.6295 51.3456 46.3839 51.0297 47.0345C50.7139 47.6871 50.2632 48.2319 49.6737 48.6709C49.0843 49.11 48.3741 49.4413 47.5352 49.6648C46.6982 49.8883 45.7547 50.0001 44.7126 50.0001C43.6704 50.0001 42.7249 49.8883 41.8839 49.6648C41.043 49.4413 40.3248 49.108 39.7313 48.6709C39.1378 48.2339 38.6831 47.6871 38.3612 47.0345C38.0393 46.3819 37.8804 45.6295 37.8804 44.7774C37.8804 43.9252 38.0413 43.1729 38.3612 42.5203C38.6811 41.8677 39.1398 41.3229 39.7313 40.8838C40.3227 40.4448 41.041 40.1135 41.8839 39.89C42.7249 39.6664 43.6684 39.5547 44.7126 39.5547C45.7567 39.5547 46.6982 39.6664 47.5352 39.89C48.3741 40.1135 49.0863 40.4468 49.6737 40.8838C50.2612 41.3209 50.7139 41.8677 51.0297 42.5203C51.3456 43.1729 51.5025 43.9252 51.5025 44.7774ZM48.7704 44.7774C48.7704 44.4082 48.7101 44.037 48.5914 43.6678C48.4727 43.2986 48.2614 42.9673 47.9576 42.6739C47.6539 42.3806 47.2394 42.1431 46.7163 41.9595C46.1913 41.7759 45.5233 41.6841 44.7126 41.6841C44.1694 41.6841 43.6905 41.728 43.2781 41.8118C42.8657 41.8956 42.5096 42.0134 42.2078 42.161C41.9061 42.3107 41.6546 42.4843 41.4514 42.6859C41.2482 42.8855 41.0852 43.101 40.9625 43.3285C40.8418 43.556 40.7553 43.7955 40.705 44.043C40.6547 44.2904 40.6285 44.5359 40.6285 44.7774C40.6285 45.0189 40.6547 45.2723 40.705 45.5218C40.7553 45.7732 40.8418 46.0107 40.9625 46.2402C41.0852 46.4697 41.2482 46.6832 41.4514 46.8808C41.6546 47.0784 41.9081 47.25 42.2078 47.3977C42.5096 47.5454 42.8657 47.6591 43.2781 47.7449C43.6905 47.8308 44.1674 47.8727 44.7126 47.8727C45.5233 47.8727 46.1913 47.7809 46.7163 47.5973C47.2414 47.4137 47.6539 47.1762 47.9576 46.8808C48.2614 46.5855 48.4727 46.2562 48.5914 45.887C48.7101 45.5178 48.7704 45.1466 48.7704 44.7774Z" fill="black" fill-opacity="0.9"/>
<path d="M76.8981 44.7789C76.8981 45.6291 76.7371 46.3815 76.4253 47.036C76.1155 47.6886 75.6548 48.2314 75.0713 48.6765C74.4879 49.1075 73.7656 49.4408 72.9327 49.6623C72.0998 49.8839 71.1543 49.9956 70.1101 49.9956C69.066 49.9956 68.1204 49.8839 67.2755 49.6623C66.4305 49.4408 65.7223 49.1075 65.1248 48.6765C64.5273 48.2334 64.0807 47.6906 63.7568 47.036C63.5556 46.6249 63.4168 46.1779 63.3484 45.679H61.7168V49.822H59.0068V39.8815H61.7168V43.4957H63.4188C63.4248 43.4718 63.4268 43.4458 63.4329 43.4219C63.4449 43.36 63.4711 43.3101 63.4832 43.2502C63.5455 42.9908 63.6441 42.7573 63.7568 42.5218C64.0807 41.8672 64.5273 41.3124 65.1248 40.8814C65.7223 40.4383 66.4305 40.117 67.2755 39.8835C67.3117 39.8716 67.3499 39.8596 67.3881 39.8596C67.7724 39.7618 68.1828 39.686 68.6194 39.6381C69.0922 39.5762 69.5891 39.5522 70.1101 39.5522C71.1543 39.5522 72.0998 39.664 72.9327 39.8855C73.7656 40.119 74.4859 40.4403 75.0713 40.8834C75.6548 41.3144 76.1155 41.8692 76.4253 42.5238C76.7371 43.1784 76.9001 43.9288 76.9001 44.7809M74.164 44.7809C74.164 44.4117 74.1016 44.0405 73.989 43.6713C73.8642 43.3021 73.653 42.9688 73.3552 42.6735C73.0454 42.3781 72.635 42.1426 72.1119 41.959C71.5888 41.7734 70.9189 41.6876 70.1101 41.6876H70.086C69.5509 41.6876 69.0781 41.7235 68.6697 41.8114C68.2593 41.8972 67.9112 42.0209 67.5994 42.1686C67.5249 42.2065 67.4505 42.2424 67.3881 42.2923C67.1769 42.4041 67.0019 42.5398 66.8409 42.6875C66.6679 42.8591 66.517 43.0567 66.4064 43.2542C66.3822 43.2782 66.3701 43.3041 66.3561 43.3281C66.344 43.366 66.3178 43.3899 66.3058 43.4279C66.2072 43.6254 66.1328 43.835 66.0945 44.0445C66.0442 44.292 66.0201 44.5374 66.0201 44.7849C66.0201 45.0064 66.0442 45.216 66.0825 45.4395C66.0825 45.4634 66.0945 45.5014 66.0945 45.5253C66.0945 45.5493 66.1066 45.5872 66.1187 45.6111C66.169 45.8326 66.2434 46.0422 66.3541 46.2398C66.4788 46.4733 66.6397 46.6828 66.8389 46.8804C66.9999 47.0281 67.1749 47.1638 67.3861 47.2755C67.4485 47.3254 67.5229 47.3613 67.5974 47.3992C67.9092 47.5469 68.2552 47.6587 68.6677 47.7445C69.0781 47.8303 69.5509 47.8802 70.084 47.8802H70.1081C70.9169 47.8802 71.5868 47.7824 72.1099 47.5968C72.633 47.4112 73.0414 47.1777 73.3532 46.8824C73.651 46.587 73.8622 46.2657 73.987 45.8965C74.0996 45.5273 74.162 45.1561 74.162 44.7869" fill="black" fill-opacity="0.9"/>
<path d="M87.0001 39.8438V42.019H81.0491V49.7702H78.3452V39.8438H87.0001Z" fill="black" fill-opacity="0.9"/>
<path d="M86.9997 34.0854H0V35.8816H86.9997V34.0854Z" fill="black" fill-opacity="0.9"/>
</svg>
