<svg width="15" height="18" viewBox="0 0 15 18" fill="none" xmlns="http://www.w3.org/2000/svg">
<path d="M14 17L14 16.1623C14 15.1857 14 14.6974 13.8874 14.298C13.604 13.2934 12.8189 12.5083 11.8143 12.2249C11.4149 12.1123 10.9266 12.1123 9.95 12.1123H5.05C4.07337 12.1123 3.58505 12.1123 3.18568 12.2249C2.18108 12.5083 1.39596 13.2934 1.11263 14.298C1 14.6974 1 15.1857 1 16.1623L1 17M11.5733 4.61202C11.5733 6.60689 9.94365 8.22404 7.93333 8.22404C5.92302 8.22404 4.29333 6.60689 4.29333 4.61202C4.29333 2.61716 5.92302 1 7.93333 1C9.94365 1 11.5733 2.61716 11.5733 4.61202Z" stroke="#1A1D22" stroke-width="1.5" stroke-linecap="round" stroke-linejoin="round"/>
</svg>
