<svg width="90.000000" height="14.000000" viewBox="-2 0 90 14" fill="none" xmlns="http://www.w3.org/2000/svg" xmlns:xlink="http://www.w3.org/1999/xlink">
	<desc>
			Created with Pixso.
	</desc>
	<defs/>
	<path id="BLACKOUT" d="M40.43 10.74Q41.39 9.68 41.6 7.93L39.9 7.93Q39.66 9.52 38.9 10.15Q38.15 10.79 36.75 10.79Q35.89 10.79 35.25 10.43Q34.71 10.12 34.31 9.56Q33.44 8.33 33.44 6.25L33.44 5.01Q33.44 2.8 34.36 1.61Q34.74 1.12 35.23 0.83Q35.94 0.41 36.9 0.41Q38.15 0.41 38.87 1.03Q38.91 1.06 38.95 1.1Q39.68 1.78 39.9 3.31L41.6 3.31Q41.43 1.6 40.51 0.52Q40.35 0.33 40.16 0.16Q39.98 -0.01 39.77 -0.16Q38.62 -0.98 36.9 -0.98Q35.58 -0.98 34.53 -0.44Q34.35 -0.36 34.19 -0.25Q33.9 -0.08 33.65 0.14Q32.86 0.8 32.38 1.83Q31.75 3.18 31.75 4.96L31.75 6.19Q31.75 8.85 33.04 10.46Q33.08 10.5 33.11 10.54Q33.67 11.21 34.38 11.6Q35.41 12.17 36.75 12.17Q38.65 12.17 39.87 11.25Q39.99 11.17 40.1 11.07Q40.28 10.91 40.43 10.74ZM64.12 9.29Q64.76 7.89 64.76 6.01L64.76 5.2Q64.76 3.33 64.12 1.92Q63.61 0.77 62.74 0.07Q62.54 -0.1 62.32 -0.23Q62.11 -0.37 61.88 -0.48Q60.87 -0.98 59.61 -0.98Q58.47 -0.98 57.52 -0.55Q57.21 -0.41 56.92 -0.23Q56.72 -0.1 56.53 0.05Q55.64 0.77 55.11 1.94Q54.46 3.36 54.46 5.2L54.46 6.12Q54.48 7.93 55.13 9.31Q55.64 10.4 56.48 11.09Q56.7 11.27 56.94 11.43Q57.21 11.6 57.49 11.73Q58.45 12.17 59.62 12.17Q60.96 12.17 62 11.62Q62.17 11.54 62.33 11.43Q62.53 11.31 62.71 11.16Q63.6 10.46 64.12 9.29ZM-0.52 -0.8L-0.52 12L3.92 12Q5.96 12 7.07 11.01Q7.4 10.73 7.63 10.38Q8.19 9.53 8.19 8.3Q8.19 7.44 7.84 6.77Q7.73 6.56 7.59 6.37Q7.38 6.08 7.11 5.86Q6.62 5.45 5.95 5.26Q6.73 4.93 7.21 4.35Q7.28 4.27 7.34 4.19Q7.54 3.93 7.66 3.63Q7.85 3.16 7.85 2.61Q7.85 1.29 7.21 0.48Q7.03 0.25 6.8 0.06Q5.75 -0.8 3.66 -0.8L-0.52 -0.8ZM18.45 10.62L12.38 10.62L12.38 -0.8L10.69 -0.8L10.69 12L18.45 12L18.45 10.62ZM21.04 12L22.24 8.66L27.61 8.66L28.83 12L30.56 12L25.66 -0.8L24.19 -0.8L19.3 12L21.04 12ZM45.59 7.67L47.15 6.04L51.69 12L53.71 12L48.28 4.85L53.31 -0.8L51.27 -0.8L45.59 5.53L45.59 -0.8L43.9 -0.8L43.9 12L45.59 12L45.59 7.67ZM76.3 7.9L76.3 -0.8L74.6 -0.8L74.6 7.87Q74.6 9.12 73.99 9.86Q73.92 9.95 73.84 10.03Q73.79 10.08 73.73 10.13Q72.98 10.79 71.65 10.79Q70.36 10.79 69.62 10.16Q69.54 10.09 69.47 10.02Q69.38 9.94 69.31 9.84Q68.7 9.1 68.7 7.86L68.7 -0.8L67.03 -0.8L67.03 7.92Q67.05 9.4 67.74 10.41Q67.98 10.75 68.3 11.04Q68.44 11.16 68.58 11.27Q69.78 12.17 71.65 12.17L72.1 12.15Q73.73 12.03 74.79 11.19Q74.99 11.04 75.16 10.86Q75.5 10.52 75.74 10.11Q76.29 9.17 76.3 7.9ZM83.69 0.59L87.8 0.59L87.8 -0.8L77.91 -0.8L77.91 0.59L82.01 0.59L82.01 12L83.69 12L83.69 0.59ZM62.16 1.69Q63.08 2.91 63.08 5.18L63.08 6.13Q63.05 8.36 62.16 9.55Q61.81 10.01 61.35 10.29Q60.63 10.74 59.62 10.74Q58.74 10.74 58.06 10.36Q57.49 10.05 57.07 9.48Q56.14 8.22 56.14 6.01L56.14 5.07Q56.17 2.91 57.09 1.69Q57.49 1.15 58.03 0.85Q58.71 0.47 59.61 0.47Q60.58 0.47 61.3 0.9Q61.79 1.2 62.16 1.69ZM3.72 4.66L1.17 4.66L1.17 0.59L3.66 0.59Q4.92 0.59 5.54 1.07Q5.63 1.14 5.7 1.22Q6.15 1.7 6.15 2.6Q6.15 3.2 5.89 3.64Q5.73 3.9 5.49 4.1Q5.47 4.12 5.46 4.13Q4.8 4.66 3.72 4.66ZM27.1 7.27L22.75 7.27L24.92 1.28L27.1 7.27ZM1.17 10.62L1.17 6.01L3.98 6.01Q5.34 6.01 5.97 6.69Q6.49 7.26 6.49 8.32Q6.49 9.1 6.13 9.64Q6 9.84 5.81 10Q5.77 10.04 5.73 10.07Q5.07 10.62 3.95 10.62L1.17 10.62Z" fill="#1A1D22" fill-opacity="1.000000" fill-rule="evenodd"/>
</svg>
