<svg width="81.000000" height="13.000000" viewBox="-1 0 82 13" fill="none" xmlns="http://www.w3.org/2000/svg" xmlns:xlink="http://www.w3.org/1999/xlink">
	<desc>
			Created with Pixso.
	</desc>
	<defs/>
	<path id="FLAGMAN" d="M40.07 10.69Q40.24 10.52 40.38 10.32L40.38 5.62L35.74 5.62L35.74 6.99L38.7 6.99L38.7 9.87Q38.6 9.97 38.49 10.07Q38.08 10.41 37.52 10.58Q36.81 10.79 35.86 10.79Q34.92 10.79 34.21 10.4Q33.63 10.08 33.2 9.52Q32.21 8.25 32.21 6.1L32.21 5.05Q32.22 2.79 33.09 1.6Q33.39 1.2 33.77 0.94Q34.54 0.41 35.66 0.41Q36.92 0.41 37.67 1.02Q38.45 1.66 38.69 2.95L40.38 2.95Q40.15 1.39 39.28 0.43Q39.09 0.22 38.88 0.05Q38.81 -0.01 38.74 -0.06Q37.55 -0.98 35.66 -0.98Q33.9 -0.98 32.71 -0.16Q32.25 0.16 31.86 0.61Q30.51 2.2 30.51 5.1L30.51 6.21Q30.53 8 31.2 9.35Q31.65 10.29 32.38 10.93Q32.7 11.21 33.07 11.44Q33.28 11.56 33.49 11.66Q34.55 12.17 35.85 12.17Q37.4 12.17 38.56 11.71Q39.48 11.35 40.07 10.69ZM1.17 6.34L6.54 6.34L6.54 4.96L1.17 4.96L1.17 0.59L7.41 0.59L7.41 -0.8L-0.52 -0.8L-0.52 12L1.17 12L1.17 6.34ZM17.19 10.62L11.13 10.62L11.13 -0.8L9.43 -0.8L9.43 12L17.19 12L17.19 10.62ZM19.78 12L20.99 8.66L26.35 8.66L27.57 12L29.3 12L24.41 -0.8L22.93 -0.8L18.04 12L19.78 12ZM49.55 9.64L45.37 -0.8L43.19 -0.8L43.19 12L44.88 12L44.88 7.01L44.71 1.66L48.9 12L50.19 12L54.39 1.63L54.24 7.01L54.24 12L55.92 12L55.92 -0.8L53.74 -0.8L49.55 9.64ZM59.56 12L60.77 8.66L66.13 8.66L67.35 12L69.08 12L64.19 -0.8L62.71 -0.8L57.82 12L59.56 12ZM78.94 12L80.64 12L80.64 -0.8L78.96 -0.8L78.96 9.1L72.5 -0.8L70.8 -0.8L70.8 12L72.5 12L72.5 2.13L78.94 12ZM25.85 7.27L21.5 7.27L23.67 1.28L25.85 7.27ZM65.63 7.27L61.28 7.27L63.45 1.28L65.63 7.27Z" fill="#1A1D22" fill-opacity="1.000000" fill-rule="evenodd"/>
</svg>
