<svg width="53.000000" height="12.000000" viewBox="-1 0 53 12" fill="none" xmlns="http://www.w3.org/2000/svg"
     xmlns:xlink="http://www.w3.org/1999/xlink">
    <desc>
        Created with Pixso.
    </desc>
    <defs/>
    <path id="MATCH"
          d="M40.3 9.65Q41.05 8.72 41.18 7.29L39.21 7.29Q39.06 8.51 38.47 9.03Q37.89 9.56 36.72 9.56Q35.97 9.56 35.43 9.22Q35.06 8.98 34.79 8.59Q34.13 7.62 34.13 5.78L34.13 4.77Q34.14 2.95 34.83 2.01Q35.1 1.65 35.45 1.43Q36.02 1.07 36.82 1.07Q37.92 1.07 38.5 1.61Q39.07 2.15 39.21 3.38L41.18 3.38Q41.02 1.78 40.16 0.81Q40.02 0.64 39.85 0.49Q39.7 0.36 39.54 0.24Q38.46 -0.54 36.82 -0.54Q35.64 -0.54 34.7 -0.07Q34.52 0.02 34.35 0.13Q34.06 0.31 33.8 0.54Q33.13 1.13 32.71 2.02Q32.14 3.25 32.14 4.85L32.14 5.92Q32.17 7.49 32.73 8.67Q33.14 9.54 33.8 10.12Q34.05 10.33 34.33 10.51Q34.49 10.61 34.65 10.69Q35.57 11.15 36.72 11.15Q38.51 11.15 39.64 10.29Q39.74 10.21 39.84 10.13Q40.09 9.91 40.3 9.65ZM5 8.34L1.71 -0.38L-0.85 -0.38L-0.85 11L1.12 11L1.12 7.25L0.92 2.24L4.28 11L5.69 11L9.05 2.23L8.85 7.25L8.85 11L10.82 11L10.82 -0.38L8.27 -0.38L5 8.34ZM14.34 11L15.26 8.35L19.67 8.35L20.6 11L22.66 11L18.35 -0.38L16.58 -0.38L12.28 11L14.34 11ZM27.68 1.21L31.23 1.21L31.23 -0.38L22.21 -0.38L22.21 1.21L25.72 1.21L25.72 11L27.68 11L27.68 1.21ZM50.01 11L51.98 11L51.98 -0.38L50.01 -0.38L50.01 4.35L44.92 4.35L44.92 -0.38L42.95 -0.38L42.95 11L44.92 11L44.92 5.94L50.01 5.94L50.01 11ZM17.46 2.03L19.11 6.75L15.82 6.75L17.46 2.03Z"
          fill="#1A1D22" fill-opacity="1.000000" fill-rule="evenodd"/>
</svg>
