<svg width="93.000000" height="13.000000" viewBox="0 0 93 13" fill="none" xmlns="http://www.w3.org/2000/svg" xmlns:xlink="http://www.w3.org/1999/xlink">
	<desc>
			Created with Pixso.
	</desc>
	<defs/>
	<path id="SCENERIDE" d="M1.09 4.76Q2.08 5.67 4.25 6.29Q5.98 6.79 6.64 7.31Q6.87 7.49 7.02 7.72Q7.3 8.15 7.3 8.76Q7.3 9.29 7.08 9.69Q6.9 10.01 6.59 10.25Q5.88 10.79 4.54 10.79Q3.11 10.79 2.25 10.12Q1.89 9.84 1.68 9.47Q1.39 8.96 1.39 8.29L-0.3 8.29Q-0.3 8.96 -0.08 9.54Q0.07 9.93 0.32 10.28Q0.32 10.29 0.33 10.3Q0.95 11.17 2.08 11.67Q2.3 11.76 2.52 11.84Q3.47 12.17 4.54 12.17Q6.57 12.17 7.78 11.23Q8.37 10.79 8.67 10.19Q9 9.55 9 8.74Q9 7.79 8.58 7.08Q8.57 7.06 8.56 7.05Q8.13 6.33 7.23 5.79Q6.33 5.25 4.73 4.8Q3.13 4.35 2.47 3.81Q2.06 3.47 1.9 3.04Q1.81 2.78 1.81 2.49Q1.81 1.88 2.08 1.44Q2.24 1.17 2.51 0.96Q3.2 0.41 4.45 0.41Q5.8 0.41 6.54 1.07Q6.74 1.26 6.88 1.47Q7.27 2.05 7.27 2.9L8.97 2.9Q8.97 2.36 8.82 1.86Q8.68 1.38 8.4 0.94Q8.28 0.74 8.12 0.55Q7.6 -0.07 6.8 -0.47Q5.77 -0.98 4.45 -0.98Q2.65 -0.98 1.48 -0.12Q1.39 -0.06 1.31 0.01Q0.65 0.55 0.35 1.24Q0.1 1.82 0.1 2.51Q0.1 3.17 0.34 3.72Q0.59 4.29 1.09 4.76ZM19.41 10.74Q20.37 9.68 20.57 7.93L18.88 7.93Q18.63 9.52 17.88 10.15Q17.13 10.79 15.72 10.79Q14.87 10.79 14.22 10.43Q13.68 10.12 13.29 9.56Q12.42 8.33 12.42 6.25L12.42 5.01Q12.42 2.8 13.33 1.61Q13.71 1.12 14.21 0.83Q14.92 0.41 15.87 0.41Q17.12 0.41 17.85 1.03Q17.89 1.06 17.92 1.1Q18.66 1.78 18.88 3.31L20.57 3.31Q20.4 1.6 19.48 0.52Q19.32 0.33 19.14 0.16Q18.95 -0.01 18.74 -0.16Q17.59 -0.98 15.87 -0.98Q14.55 -0.98 13.5 -0.44Q13.33 -0.36 13.16 -0.25Q12.88 -0.08 12.62 0.14Q11.84 0.8 11.36 1.83Q10.72 3.18 10.72 4.96L10.72 6.19Q10.72 8.85 12.01 10.46Q12.05 10.5 12.09 10.54Q12.65 11.21 13.35 11.6Q14.38 12.17 15.72 12.17Q17.63 12.17 18.84 11.25Q18.96 11.17 19.07 11.07Q19.25 10.91 19.41 10.74ZM24.56 6.08L30.11 6.08L30.11 4.7L24.56 4.7L24.56 0.59L30.92 0.59L30.92 -0.8L22.87 -0.8L22.87 12L31 12L31 10.62L24.56 10.62L24.56 6.08ZM41.24 12L42.94 12L42.94 -0.8L41.26 -0.8L41.26 9.1L34.8 -0.8L33.11 -0.8L33.11 12L34.8 12L34.8 2.13L41.24 12ZM47.62 6.08L53.17 6.08L53.17 4.7L47.62 4.7L47.62 0.59L53.98 0.59L53.98 -0.8L45.94 -0.8L45.94 12L54.07 12L54.07 10.62L47.62 10.62L47.62 6.08ZM57.86 6.82L60.86 6.82L63.64 12L65.45 12L65.45 11.89L62.44 6.46Q63.41 6.09 64.03 5.4Q64.14 5.27 64.24 5.13Q64.42 4.88 64.55 4.61Q64.89 3.91 64.89 3.05Q64.89 1.58 64.18 0.66Q63.98 0.4 63.72 0.18Q62.56 -0.8 60.4 -0.8L56.16 -0.8L56.16 12L57.86 12L57.86 6.82ZM67.37 12L69.06 12L69.06 -0.8L67.37 -0.8L67.37 12ZM72.15 -0.8L72.15 12L75.69 12Q77.41 11.98 78.71 11.25Q79.24 10.95 79.68 10.54Q80.29 9.96 80.7 9.16Q81.4 7.79 81.4 5.98L81.4 5.17Q81.39 3.4 80.69 2.04Q80.27 1.21 79.64 0.62Q79.22 0.23 78.71 -0.06Q78.62 -0.12 78.53 -0.16Q77.31 -0.8 75.76 -0.8L72.15 -0.8ZM85.64 6.08L91.18 6.08L91.18 4.7L85.64 4.7L85.64 0.59L91.99 0.59L91.99 -0.8L83.95 -0.8L83.95 12L92.08 12L92.08 10.62L85.64 10.62L85.64 6.08ZM60.45 5.44L57.86 5.44L57.86 0.59L60.44 0.59Q61.78 0.6 62.48 1.23Q62.61 1.35 62.72 1.48Q63.19 2.08 63.19 3.05Q63.19 3.75 62.88 4.27Q62.71 4.56 62.45 4.79Q62.4 4.83 62.36 4.86Q61.63 5.44 60.45 5.44ZM73.83 10.62L73.83 0.59L75.8 0.59Q77.19 0.6 78.11 1.26Q78.44 1.5 78.71 1.81Q79.73 3.02 79.73 5.2L79.73 5.95Q79.73 8.19 78.65 9.4Q78.39 9.69 78.08 9.91Q77.09 10.62 75.61 10.62L73.83 10.62Z" fill="#1A1D22" fill-opacity="1.000000" fill-rule="evenodd"/>
</svg>
