<svg width="26.500000" height="25.087891" viewBox="0 0 26.5 25.0879" fill="none" xmlns="http://www.w3.org/2000/svg"
     >
    <defs/>
    <path id="Vector" d="M9.26233 0.75293L4.7373 5.03369" stroke="#AFC6DD" stroke-opacity="1.000000"
          stroke-width="1.500000" stroke-linejoin="round" stroke-linecap="round"/>
    <path id="Vector" d="M17.2373 0.75293L21.7623 5.03369" stroke="#AFC6DD" stroke-opacity="1.000000"
          stroke-width="1.500000" stroke-linejoin="round" stroke-linecap="round"/>
    <path id="Vector"
          d="M3.52502 5.29297L22.975 5.29297C24.5125 5.29297 25.75 5.46973 25.75 7.65137C25.75 10.187 24.5125 10.0098 22.975 10.0098L3.52502 10.0098C1.98749 10.0098 0.75 10.187 0.75 7.65137C0.75 5.46973 1.98749 5.29297 3.52502 5.29297Z"
          stroke="#AFC6DD" stroke-opacity="1.000000" stroke-width="1.500000"/>
    <path id="Vector" d="M10.45 14.9038L10.45 19.0903" stroke="#AFC6DD" stroke-opacity="1.000000"
          stroke-width="1.500000" stroke-linecap="round"/>
    <path id="Vector" d="M16.2 14.9038L16.2 19.0903" stroke="#AFC6DD" stroke-opacity="1.000000" stroke-width="1.500000"
          stroke-linecap="round"/>
    <path id="Vector"
          d="M2.625 10.187L4.38751 20.3755C4.78748 22.6636 5.75 24.3379 9.32501 24.3379L16.8625 24.3379C20.75 24.3379 21.325 22.7344 21.775 20.5171L23.875 10.187"
          stroke="#AFC6DD" stroke-opacity="1.000000" stroke-width="1.500000" stroke-linecap="round"/>
</svg>
